{
	"asset":{
		"generator":"Khronos glTF Blender I/O v3.5.30",
		"version":"2.0"
	},
	"scene":0,
	"scenes":[
		{
			"name":"Scene",
			"nodes":[
				7
			]
		}
	],
	"nodes":[
		{
			"mesh":0,
			"name":"leg-left",
			"translation":[
				0.125,
				0.17624998092651367,
				-0.023749999701976776
			]
		},
		{
			"mesh":1,
			"name":"leg-right",
			"translation":[
				-0.125,
				0.17624998092651367,
				-0.023750001564621925
			]
		},
		{
			"mesh":2,
			"name":"antenna",
			"translation":[
				0,
				0.6000000238418579,
				0
			]
		},
		{
			"mesh":3,
			"name":"arm-left",
			"translation":[
				0.30000001192092896,
				0.17500001192092896,
				0
			]
		},
		{
			"mesh":4,
			"name":"arm-right",
			"translation":[
				-0.30000001192092896,
				0.11949998140335083,
				0
			]
		},
		{
			"children":[
				2,
				3,
				4
			],
			"mesh":5,
			"name":"torso",
			"translation":[
				0,
				0.17624998092651367,
				-0.023749999701976776
			]
		},
		{
			"children":[
				0,
				1,
				5
			],
			"name":"root",
			"translation":[
				0,
				0.023749999701976776,
				0
			]
		},
		{
			"children":[
				6
			],
			"name":"character"
		}
	],
	"animations":[
		{
			"channels":[
				{
					"sampler":0,
					"target":{
						"node":7,
						"path":"translation"
					}
				},
				{
					"sampler":1,
					"target":{
						"node":7,
						"path":"rotation"
					}
				},
				{
					"sampler":2,
					"target":{
						"node":7,
						"path":"scale"
					}
				}
			],
			"name":"character",
			"samplers":[
				{
					"input":24,
					"interpolation":"LINEAR",
					"output":25
				},
				{
					"input":24,
					"interpolation":"LINEAR",
					"output":26
				},
				{
					"input":24,
					"interpolation":"LINEAR",
					"output":27
				}
			]
		},
		{
			"channels":[
				{
					"sampler":0,
					"target":{
						"node":6,
						"path":"translation"
					}
				},
				{
					"sampler":1,
					"target":{
						"node":6,
						"path":"rotation"
					}
				},
				{
					"sampler":2,
					"target":{
						"node":6,
						"path":"scale"
					}
				},
				{
					"sampler":3,
					"target":{
						"node":0,
						"path":"translation"
					}
				},
				{
					"sampler":4,
					"target":{
						"node":0,
						"path":"rotation"
					}
				},
				{
					"sampler":5,
					"target":{
						"node":0,
						"path":"scale"
					}
				},
				{
					"sampler":6,
					"target":{
						"node":1,
						"path":"translation"
					}
				},
				{
					"sampler":7,
					"target":{
						"node":1,
						"path":"rotation"
					}
				},
				{
					"sampler":8,
					"target":{
						"node":1,
						"path":"scale"
					}
				},
				{
					"sampler":9,
					"target":{
						"node":5,
						"path":"translation"
					}
				},
				{
					"sampler":10,
					"target":{
						"node":5,
						"path":"rotation"
					}
				},
				{
					"sampler":11,
					"target":{
						"node":5,
						"path":"scale"
					}
				},
				{
					"sampler":12,
					"target":{
						"node":2,
						"path":"translation"
					}
				},
				{
					"sampler":13,
					"target":{
						"node":2,
						"path":"rotation"
					}
				},
				{
					"sampler":14,
					"target":{
						"node":2,
						"path":"scale"
					}
				},
				{
					"sampler":15,
					"target":{
						"node":3,
						"path":"translation"
					}
				},
				{
					"sampler":16,
					"target":{
						"node":3,
						"path":"rotation"
					}
				},
				{
					"sampler":17,
					"target":{
						"node":3,
						"path":"scale"
					}
				},
				{
					"sampler":18,
					"target":{
						"node":4,
						"path":"translation"
					}
				},
				{
					"sampler":19,
					"target":{
						"node":4,
						"path":"rotation"
					}
				},
				{
					"sampler":20,
					"target":{
						"node":4,
						"path":"scale"
					}
				}
			],
			"name":"static",
			"samplers":[
				{
					"input":24,
					"interpolation":"LINEAR",
					"output":28
				},
				{
					"input":24,
					"interpolation":"LINEAR",
					"output":29
				},
				{
					"input":24,
					"interpolation":"LINEAR",
					"output":30
				},
				{
					"input":24,
					"interpolation":"LINEAR",
					"output":31
				},
				{
					"input":24,
					"interpolation":"LINEAR",
					"output":32
				},
				{
					"input":24,
					"interpolation":"LINEAR",
					"output":33
				},
				{
					"input":24,
					"interpolation":"LINEAR",
					"output":34
				},
				{
					"input":24,
					"interpolation":"LINEAR",
					"output":35
				},
				{
					"input":24,
					"interpolation":"LINEAR",
					"output":36
				},
				{
					"input":24,
					"interpolation":"LINEAR",
					"output":37
				},
				{
					"input":24,
					"interpolation":"LINEAR",
					"output":38
				},
				{
					"input":24,
					"interpolation":"LINEAR",
					"output":39
				},
				{
					"input":24,
					"interpolation":"LINEAR",
					"output":40
				},
				{
					"input":24,
					"interpolation":"LINEAR",
					"output":41
				},
				{
					"input":24,
					"interpolation":"LINEAR",
					"output":42
				},
				{
					"input":24,
					"interpolation":"LINEAR",
					"output":43
				},
				{
					"input":24,
					"interpolation":"LINEAR",
					"output":44
				},
				{
					"input":24,
					"interpolation":"LINEAR",
					"output":45
				},
				{
					"input":24,
					"interpolation":"LINEAR",
					"output":46
				},
				{
					"input":24,
					"interpolation":"LINEAR",
					"output":47
				},
				{
					"input":24,
					"interpolation":"LINEAR",
					"output":48
				}
			]
		},
		{
			"channels":[
				{
					"sampler":0,
					"target":{
						"node":6,
						"path":"translation"
					}
				},
				{
					"sampler":1,
					"target":{
						"node":0,
						"path":"translation"
					}
				},
				{
					"sampler":2,
					"target":{
						"node":0,
						"path":"rotation"
					}
				},
				{
					"sampler":3,
					"target":{
						"node":1,
						"path":"translation"
					}
				},
				{
					"sampler":4,
					"target":{
						"node":1,
						"path":"rotation"
					}
				},
				{
					"sampler":5,
					"target":{
						"node":5,
						"path":"rotation"
					}
				},
				{
					"sampler":6,
					"target":{
						"node":2,
						"path":"rotation"
					}
				},
				{
					"sampler":7,
					"target":{
						"node":3,
						"path":"rotation"
					}
				},
				{
					"sampler":8,
					"target":{
						"node":4,
						"path":"rotation"
					}
				}
			],
			"name":"walk",
			"samplers":[
				{
					"input":49,
					"interpolation":"LINEAR",
					"output":50
				},
				{
					"input":49,
					"interpolation":"LINEAR",
					"output":51
				},
				{
					"input":49,
					"interpolation":"LINEAR",
					"output":52
				},
				{
					"input":49,
					"interpolation":"LINEAR",
					"output":53
				},
				{
					"input":49,
					"interpolation":"LINEAR",
					"output":54
				},
				{
					"input":49,
					"interpolation":"LINEAR",
					"output":55
				},
				{
					"input":49,
					"interpolation":"LINEAR",
					"output":56
				},
				{
					"input":49,
					"interpolation":"LINEAR",
					"output":57
				},
				{
					"input":49,
					"interpolation":"LINEAR",
					"output":58
				}
			]
		},
		{
			"channels":[
				{
					"sampler":0,
					"target":{
						"node":0,
						"path":"rotation"
					}
				},
				{
					"sampler":1,
					"target":{
						"node":1,
						"path":"rotation"
					}
				},
				{
					"sampler":2,
					"target":{
						"node":5,
						"path":"rotation"
					}
				},
				{
					"sampler":3,
					"target":{
						"node":2,
						"path":"rotation"
					}
				},
				{
					"sampler":4,
					"target":{
						"node":3,
						"path":"rotation"
					}
				},
				{
					"sampler":5,
					"target":{
						"node":4,
						"path":"rotation"
					}
				}
			],
			"name":"idle",
			"samplers":[
				{
					"input":59,
					"interpolation":"LINEAR",
					"output":60
				},
				{
					"input":59,
					"interpolation":"LINEAR",
					"output":61
				},
				{
					"input":59,
					"interpolation":"LINEAR",
					"output":62
				},
				{
					"input":59,
					"interpolation":"LINEAR",
					"output":63
				},
				{
					"input":59,
					"interpolation":"LINEAR",
					"output":64
				},
				{
					"input":59,
					"interpolation":"LINEAR",
					"output":65
				}
			]
		},
		{
			"channels":[
				{
					"sampler":0,
					"target":{
						"node":0,
						"path":"translation"
					}
				},
				{
					"sampler":1,
					"target":{
						"node":0,
						"path":"rotation"
					}
				},
				{
					"sampler":2,
					"target":{
						"node":1,
						"path":"translation"
					}
				},
				{
					"sampler":3,
					"target":{
						"node":1,
						"path":"rotation"
					}
				},
				{
					"sampler":4,
					"target":{
						"node":5,
						"path":"rotation"
					}
				},
				{
					"sampler":5,
					"target":{
						"node":2,
						"path":"rotation"
					}
				},
				{
					"sampler":6,
					"target":{
						"node":3,
						"path":"rotation"
					}
				},
				{
					"sampler":7,
					"target":{
						"node":4,
						"path":"rotation"
					}
				}
			],
			"name":"jump",
			"samplers":[
				{
					"input":66,
					"interpolation":"LINEAR",
					"output":67
				},
				{
					"input":66,
					"interpolation":"LINEAR",
					"output":68
				},
				{
					"input":66,
					"interpolation":"LINEAR",
					"output":69
				},
				{
					"input":66,
					"interpolation":"LINEAR",
					"output":70
				},
				{
					"input":66,
					"interpolation":"LINEAR",
					"output":71
				},
				{
					"input":66,
					"interpolation":"LINEAR",
					"output":72
				},
				{
					"input":66,
					"interpolation":"LINEAR",
					"output":73
				},
				{
					"input":66,
					"interpolation":"LINEAR",
					"output":74
				}
			]
		}
	],
	"materials":[
		{
			"doubleSided":true,
			"name":"colormap",
			"pbrMetallicRoughness":{
				"baseColorTexture":{
					"index":0
				},
				"metallicFactor":0
			}
		}
	],
	"meshes":[
		{
			"name":"leg-left",
			"primitives":[
				{
					"attributes":{
						"POSITION":0,
						"TEXCOORD_0":1,
						"NORMAL":2
					},
					"indices":3,
					"material":0
				}
			]
		},
		{
			"name":"leg-right",
			"primitives":[
				{
					"attributes":{
						"POSITION":4,
						"TEXCOORD_0":5,
						"NORMAL":6
					},
					"indices":7,
					"material":0
				}
			]
		},
		{
			"name":"antenna",
			"primitives":[
				{
					"attributes":{
						"POSITION":8,
						"TEXCOORD_0":9,
						"NORMAL":10
					},
					"indices":11,
					"material":0
				}
			]
		},
		{
			"name":"arm-left",
			"primitives":[
				{
					"attributes":{
						"POSITION":12,
						"TEXCOORD_0":13,
						"NORMAL":14
					},
					"indices":15,
					"material":0
				}
			]
		},
		{
			"name":"arm-right",
			"primitives":[
				{
					"attributes":{
						"POSITION":16,
						"TEXCOORD_0":17,
						"NORMAL":18
					},
					"indices":19,
					"material":0
				}
			]
		},
		{
			"name":"torso",
			"primitives":[
				{
					"attributes":{
						"POSITION":20,
						"TEXCOORD_0":21,
						"NORMAL":22
					},
					"indices":23,
					"material":0
				}
			]
		}
	],
	"textures":[
		{
			"sampler":0,
			"source":0
		}
	],
	"images":[
		{
			"bufferView":4,
			"mimeType":"image/png",
			"name":"colormap"
		}
	],
	"accessors":[
		{
			"bufferView":0,
			"componentType":5126,
			"count":76,
			"max":[
				0.07500000298023224,
				0.10000000149011612,
				0.15000000596046448
			],
			"min":[
				-0.07500000298023224,
				-0.20000000298023224,
				-0.07500000298023224
			],
			"type":"VEC3"
		},
		{
			"bufferView":1,
			"componentType":5126,
			"count":76,
			"type":"VEC2"
		},
		{
			"bufferView":2,
			"componentType":5126,
			"count":76,
			"type":"VEC3"
		},
		{
			"bufferView":3,
			"componentType":5123,
			"count":132,
			"type":"SCALAR"
		},
		{
			"bufferView":5,
			"componentType":5126,
			"count":76,
			"max":[
				0.07500000298023224,
				0.10000000149011612,
				0.15000000596046448
			],
			"min":[
				-0.07500000298023224,
				-0.20000000298023224,
				-0.07500000298023224
			],
			"type":"VEC3"
		},
		{
			"bufferView":6,
			"componentType":5126,
			"count":76,
			"type":"VEC2"
		},
		{
			"bufferView":7,
			"componentType":5126,
			"count":76,
			"type":"VEC3"
		},
		{
			"bufferView":8,
			"componentType":5123,
			"count":132,
			"type":"SCALAR"
		},
		{
			"bufferView":9,
			"componentType":5126,
			"count":256,
			"max":[
				0.10000002384185791,
				0.30000001192092896,
				0.09999997913837433
			],
			"min":[
				-0.09999997913837433,
				-0.049999989569187164,
				-0.10000002384185791
			],
			"type":"VEC3"
		},
		{
			"bufferView":10,
			"componentType":5126,
			"count":256,
			"type":"VEC2"
		},
		{
			"bufferView":11,
			"componentType":5126,
			"count":256,
			"type":"VEC3"
		},
		{
			"bufferView":12,
			"componentType":5123,
			"count":360,
			"type":"SCALAR"
		},
		{
			"bufferView":13,
			"componentType":5126,
			"count":134,
			"max":[
				0.30000001192092896,
				0.125,
				0.125
			],
			"min":[
				-0.15000000596046448,
				-0.125,
				-0.125
			],
			"type":"VEC3"
		},
		{
			"bufferView":14,
			"componentType":5126,
			"count":134,
			"type":"VEC2"
		},
		{
			"bufferView":15,
			"componentType":5126,
			"count":134,
			"type":"VEC3"
		},
		{
			"bufferView":16,
			"componentType":5123,
			"count":240,
			"type":"SCALAR"
		},
		{
			"bufferView":17,
			"componentType":5126,
			"count":134,
			"max":[
				0.15000000596046448,
				0.18050000071525574,
				0.125
			],
			"min":[
				-0.30000001192092896,
				-0.06949999928474426,
				-0.125
			],
			"type":"VEC3"
		},
		{
			"bufferView":18,
			"componentType":5126,
			"count":134,
			"type":"VEC2"
		},
		{
			"bufferView":19,
			"componentType":5126,
			"count":134,
			"type":"VEC3"
		},
		{
			"bufferView":20,
			"componentType":5123,
			"count":240,
			"type":"SCALAR"
		},
		{
			"bufferView":21,
			"componentType":5126,
			"count":362,
			"max":[
				0.30000001192092896,
				0.6000000238418579,
				0.33500000834465027
			],
			"min":[
				-0.30000001192092896,
				0,
				-0.30000001192092896
			],
			"type":"VEC3"
		},
		{
			"bufferView":22,
			"componentType":5126,
			"count":362,
			"type":"VEC2"
		},
		{
			"bufferView":23,
			"componentType":5126,
			"count":362,
			"type":"VEC3"
		},
		{
			"bufferView":24,
			"componentType":5123,
			"count":546,
			"type":"SCALAR"
		},
		{
			"bufferView":25,
			"componentType":5126,
			"count":25,
			"max":[
				1
			],
			"min":[
				0
			],
			"type":"SCALAR"
		},
		{
			"bufferView":26,
			"componentType":5126,
			"count":25,
			"type":"VEC3"
		},
		{
			"bufferView":27,
			"componentType":5126,
			"count":25,
			"type":"VEC4"
		},
		{
			"bufferView":28,
			"componentType":5126,
			"count":25,
			"type":"VEC3"
		},
		{
			"bufferView":29,
			"componentType":5126,
			"count":25,
			"type":"VEC3"
		},
		{
			"bufferView":30,
			"componentType":5126,
			"count":25,
			"type":"VEC4"
		},
		{
			"bufferView":31,
			"componentType":5126,
			"count":25,
			"type":"VEC3"
		},
		{
			"bufferView":32,
			"componentType":5126,
			"count":25,
			"type":"VEC3"
		},
		{
			"bufferView":33,
			"componentType":5126,
			"count":25,
			"type":"VEC4"
		},
		{
			"bufferView":34,
			"componentType":5126,
			"count":25,
			"type":"VEC3"
		},
		{
			"bufferView":35,
			"componentType":5126,
			"count":25,
			"type":"VEC3"
		},
		{
			"bufferView":36,
			"componentType":5126,
			"count":25,
			"type":"VEC4"
		},
		{
			"bufferView":37,
			"componentType":5126,
			"count":25,
			"type":"VEC3"
		},
		{
			"bufferView":38,
			"componentType":5126,
			"count":25,
			"type":"VEC3"
		},
		{
			"bufferView":39,
			"componentType":5126,
			"count":25,
			"type":"VEC4"
		},
		{
			"bufferView":40,
			"componentType":5126,
			"count":25,
			"type":"VEC3"
		},
		{
			"bufferView":41,
			"componentType":5126,
			"count":25,
			"type":"VEC3"
		},
		{
			"bufferView":42,
			"componentType":5126,
			"count":25,
			"type":"VEC4"
		},
		{
			"bufferView":43,
			"componentType":5126,
			"count":25,
			"type":"VEC3"
		},
		{
			"bufferView":44,
			"componentType":5126,
			"count":25,
			"type":"VEC3"
		},
		{
			"bufferView":45,
			"componentType":5126,
			"count":25,
			"type":"VEC4"
		},
		{
			"bufferView":46,
			"componentType":5126,
			"count":25,
			"type":"VEC3"
		},
		{
			"bufferView":47,
			"componentType":5126,
			"count":25,
			"type":"VEC3"
		},
		{
			"bufferView":48,
			"componentType":5126,
			"count":25,
			"type":"VEC4"
		},
		{
			"bufferView":49,
			"componentType":5126,
			"count":25,
			"type":"VEC3"
		},
		{
			"bufferView":50,
			"componentType":5126,
			"count":11,
			"max":[
				0.4166666666666667
			],
			"min":[
				0
			],
			"type":"SCALAR"
		},
		{
			"bufferView":51,
			"componentType":5126,
			"count":11,
			"type":"VEC3"
		},
		{
			"bufferView":52,
			"componentType":5126,
			"count":11,
			"type":"VEC3"
		},
		{
			"bufferView":53,
			"componentType":5126,
			"count":11,
			"type":"VEC4"
		},
		{
			"bufferView":54,
			"componentType":5126,
			"count":11,
			"type":"VEC3"
		},
		{
			"bufferView":55,
			"componentType":5126,
			"count":11,
			"type":"VEC4"
		},
		{
			"bufferView":56,
			"componentType":5126,
			"count":11,
			"type":"VEC4"
		},
		{
			"bufferView":57,
			"componentType":5126,
			"count":11,
			"type":"VEC4"
		},
		{
			"bufferView":58,
			"componentType":5126,
			"count":11,
			"type":"VEC4"
		},
		{
			"bufferView":59,
			"componentType":5126,
			"count":11,
			"type":"VEC4"
		},
		{
			"bufferView":60,
			"componentType":5126,
			"count":17,
			"max":[
				0.6666666666666666
			],
			"min":[
				0
			],
			"type":"SCALAR"
		},
		{
			"bufferView":61,
			"componentType":5126,
			"count":17,
			"type":"VEC4"
		},
		{
			"bufferView":62,
			"componentType":5126,
			"count":17,
			"type":"VEC4"
		},
		{
			"bufferView":63,
			"componentType":5126,
			"count":17,
			"type":"VEC4"
		},
		{
			"bufferView":64,
			"componentType":5126,
			"count":17,
			"type":"VEC4"
		},
		{
			"bufferView":65,
			"componentType":5126,
			"count":17,
			"type":"VEC4"
		},
		{
			"bufferView":66,
			"componentType":5126,
			"count":17,
			"type":"VEC4"
		},
		{
			"bufferView":67,
			"componentType":5126,
			"count":13,
			"max":[
				0.5
			],
			"min":[
				0
			],
			"type":"SCALAR"
		},
		{
			"bufferView":68,
			"componentType":5126,
			"count":13,
			"type":"VEC3"
		},
		{
			"bufferView":69,
			"componentType":5126,
			"count":13,
			"type":"VEC4"
		},
		{
			"bufferView":70,
			"componentType":5126,
			"count":13,
			"type":"VEC3"
		},
		{
			"bufferView":71,
			"componentType":5126,
			"count":13,
			"type":"VEC4"
		},
		{
			"bufferView":72,
			"componentType":5126,
			"count":13,
			"type":"VEC4"
		},
		{
			"bufferView":73,
			"componentType":5126,
			"count":13,
			"type":"VEC4"
		},
		{
			"bufferView":74,
			"componentType":5126,
			"count":13,
			"type":"VEC4"
		},
		{
			"bufferView":75,
			"componentType":5126,
			"count":13,
			"type":"VEC4"
		}
	],
	"bufferViews":[
		{
			"buffer":0,
			"byteLength":912,
			"byteOffset":0,
			"target":34962
		},
		{
			"buffer":0,
			"byteLength":608,
			"byteOffset":912,
			"target":34962
		},
		{
			"buffer":0,
			"byteLength":912,
			"byteOffset":1520,
			"target":34962
		},
		{
			"buffer":0,
			"byteLength":264,
			"byteOffset":2432,
			"target":34963
		},
		{
			"buffer":0,
			"byteLength":9385,
			"byteOffset":2696
		},
		{
			"buffer":0,
			"byteLength":912,
			"byteOffset":12084,
			"target":34962
		},
		{
			"buffer":0,
			"byteLength":608,
			"byteOffset":12996,
			"target":34962
		},
		{
			"buffer":0,
			"byteLength":912,
			"byteOffset":13604,
			"target":34962
		},
		{
			"buffer":0,
			"byteLength":264,
			"byteOffset":14516,
			"target":34963
		},
		{
			"buffer":0,
			"byteLength":3072,
			"byteOffset":14780,
			"target":34962
		},
		{
			"buffer":0,
			"byteLength":2048,
			"byteOffset":17852,
			"target":34962
		},
		{
			"buffer":0,
			"byteLength":3072,
			"byteOffset":19900,
			"target":34962
		},
		{
			"buffer":0,
			"byteLength":720,
			"byteOffset":22972,
			"target":34963
		},
		{
			"buffer":0,
			"byteLength":1608,
			"byteOffset":23692,
			"target":34962
		},
		{
			"buffer":0,
			"byteLength":1072,
			"byteOffset":25300,
			"target":34962
		},
		{
			"buffer":0,
			"byteLength":1608,
			"byteOffset":26372,
			"target":34962
		},
		{
			"buffer":0,
			"byteLength":480,
			"byteOffset":27980,
			"target":34963
		},
		{
			"buffer":0,
			"byteLength":1608,
			"byteOffset":28460,
			"target":34962
		},
		{
			"buffer":0,
			"byteLength":1072,
			"byteOffset":30068,
			"target":34962
		},
		{
			"buffer":0,
			"byteLength":1608,
			"byteOffset":31140,
			"target":34962
		},
		{
			"buffer":0,
			"byteLength":480,
			"byteOffset":32748,
			"target":34963
		},
		{
			"buffer":0,
			"byteLength":4344,
			"byteOffset":33228,
			"target":34962
		},
		{
			"buffer":0,
			"byteLength":2896,
			"byteOffset":37572,
			"target":34962
		},
		{
			"buffer":0,
			"byteLength":4344,
			"byteOffset":40468,
			"target":34962
		},
		{
			"buffer":0,
			"byteLength":1092,
			"byteOffset":44812,
			"target":34963
		},
		{
			"buffer":0,
			"byteLength":100,
			"byteOffset":45904
		},
		{
			"buffer":0,
			"byteLength":300,
			"byteOffset":46004
		},
		{
			"buffer":0,
			"byteLength":400,
			"byteOffset":46304
		},
		{
			"buffer":0,
			"byteLength":300,
			"byteOffset":46704
		},
		{
			"buffer":0,
			"byteLength":300,
			"byteOffset":47004
		},
		{
			"buffer":0,
			"byteLength":400,
			"byteOffset":47304
		},
		{
			"buffer":0,
			"byteLength":300,
			"byteOffset":47704
		},
		{
			"buffer":0,
			"byteLength":300,
			"byteOffset":48004
		},
		{
			"buffer":0,
			"byteLength":400,
			"byteOffset":48304
		},
		{
			"buffer":0,
			"byteLength":300,
			"byteOffset":48704
		},
		{
			"buffer":0,
			"byteLength":300,
			"byteOffset":49004
		},
		{
			"buffer":0,
			"byteLength":400,
			"byteOffset":49304
		},
		{
			"buffer":0,
			"byteLength":300,
			"byteOffset":49704
		},
		{
			"buffer":0,
			"byteLength":300,
			"byteOffset":50004
		},
		{
			"buffer":0,
			"byteLength":400,
			"byteOffset":50304
		},
		{
			"buffer":0,
			"byteLength":300,
			"byteOffset":50704
		},
		{
			"buffer":0,
			"byteLength":300,
			"byteOffset":51004
		},
		{
			"buffer":0,
			"byteLength":400,
			"byteOffset":51304
		},
		{
			"buffer":0,
			"byteLength":300,
			"byteOffset":51704
		},
		{
			"buffer":0,
			"byteLength":300,
			"byteOffset":52004
		},
		{
			"buffer":0,
			"byteLength":400,
			"byteOffset":52304
		},
		{
			"buffer":0,
			"byteLength":300,
			"byteOffset":52704
		},
		{
			"buffer":0,
			"byteLength":300,
			"byteOffset":53004
		},
		{
			"buffer":0,
			"byteLength":400,
			"byteOffset":53304
		},
		{
			"buffer":0,
			"byteLength":300,
			"byteOffset":53704
		},
		{
			"buffer":0,
			"byteLength":44,
			"byteOffset":54004
		},
		{
			"buffer":0,
			"byteLength":132,
			"byteOffset":54048
		},
		{
			"buffer":0,
			"byteLength":132,
			"byteOffset":54180
		},
		{
			"buffer":0,
			"byteLength":176,
			"byteOffset":54312
		},
		{
			"buffer":0,
			"byteLength":132,
			"byteOffset":54488
		},
		{
			"buffer":0,
			"byteLength":176,
			"byteOffset":54620
		},
		{
			"buffer":0,
			"byteLength":176,
			"byteOffset":54796
		},
		{
			"buffer":0,
			"byteLength":176,
			"byteOffset":54972
		},
		{
			"buffer":0,
			"byteLength":176,
			"byteOffset":55148
		},
		{
			"buffer":0,
			"byteLength":176,
			"byteOffset":55324
		},
		{
			"buffer":0,
			"byteLength":68,
			"byteOffset":55500
		},
		{
			"buffer":0,
			"byteLength":272,
			"byteOffset":55568
		},
		{
			"buffer":0,
			"byteLength":272,
			"byteOffset":55840
		},
		{
			"buffer":0,
			"byteLength":272,
			"byteOffset":56112
		},
		{
			"buffer":0,
			"byteLength":272,
			"byteOffset":56384
		},
		{
			"buffer":0,
			"byteLength":272,
			"byteOffset":56656
		},
		{
			"buffer":0,
			"byteLength":272,
			"byteOffset":56928
		},
		{
			"buffer":0,
			"byteLength":52,
			"byteOffset":57200
		},
		{
			"buffer":0,
			"byteLength":156,
			"byteOffset":57252
		},
		{
			"buffer":0,
			"byteLength":208,
			"byteOffset":57408
		},
		{
			"buffer":0,
			"byteLength":156,
			"byteOffset":57616
		},
		{
			"buffer":0,
			"byteLength":208,
			"byteOffset":57772
		},
		{
			"buffer":0,
			"byteLength":208,
			"byteOffset":57980
		},
		{
			"buffer":0,
			"byteLength":208,
			"byteOffset":58188
		},
		{
			"buffer":0,
			"byteLength":208,
			"byteOffset":58396
		},
		{
			"buffer":0,
			"byteLength":208,
			"byteOffset":58604
		}
	],
	"samplers":[
		{
			"magFilter":9729,
			"minFilter":9987
		}
	],
	"buffers":[
		{
			"byteLength":58812,
			"uri":"data:application/octet-stream;base64,"
		}
	]
}
