<?xml version="1.0" encoding="UTF-8" standalone="no"?>
<!-- Created with Inkscape (http://www.inkscape.org/) -->

<svg
   width="210mm"
   height="297mm"
   viewBox="0 0 210 297"
   version="1.1"
   id="svg1"
   xml:space="preserve"
   inkscape:version="1.3.2 (091e20e, 2023-11-25, custom)"
   sodipodi:docname="sky.svg"
   xmlns:inkscape="http://www.inkscape.org/namespaces/inkscape"
   xmlns:sodipodi="http://sodipodi.sourceforge.net/DTD/sodipodi-0.dtd"
   xmlns:xlink="http://www.w3.org/1999/xlink"
   xmlns="http://www.w3.org/2000/svg"
   xmlns:svg="http://www.w3.org/2000/svg"><sodipodi:namedview
     id="namedview1"
     pagecolor="#ffffff"
     bordercolor="#999999"
     borderopacity="1"
     inkscape:showpageshadow="0"
     inkscape:pageopacity="0"
     inkscape:pagecheckerboard="0"
     inkscape:deskcolor="#d1d1d1"
     inkscape:document-units="mm"
     inkscape:zoom="0.26740451"
     inkscape:cx="2408.3363"
     inkscape:cy="368.35579"
     inkscape:window-width="1920"
     inkscape:window-height="1027"
     inkscape:window-x="-8"
     inkscape:window-y="-8"
     inkscape:window-maximized="1"
     inkscape:current-layer="layer1" /><defs
     id="defs1"><linearGradient
       id="linearGradient3"
       inkscape:collect="always"><stop
         style="stop-color:#1d8cf8;stop-opacity:1;"
         offset="0"
         id="stop3" /><stop
         style="stop-color:#c6e7f5;stop-opacity:1;"
         offset="1"
         id="stop4" /></linearGradient><linearGradient
       inkscape:collect="always"
       xlink:href="#linearGradient3"
       id="linearGradient4"
       x1="622.68555"
       y1="24.953529"
       x2="622.68555"
       y2="237.46394"
       gradientUnits="userSpaceOnUse" /></defs><g
     inkscape:label="Capa 1"
     inkscape:groupmode="layer"
     id="layer1"><rect
       style="fill:url(#linearGradient4);stroke:none;stroke-width:0.1;stroke-linecap:round;stroke-linejoin:round;stroke-miterlimit:0.1;paint-order:fill markers stroke;fill-opacity:1"
       id="rect1"
       width="508"
       height="212.46042"
       x="368.68552"
       y="24.953529"
       rx="0.00085650827"
       ry="0.00096373539"
       inkscape:export-filename="sky2.jpg"
       inkscape:export-xdpi="500"
       inkscape:export-ydpi="500" /><path
       style="fill:#c3e7f7;fill-opacity:1;stroke:#c3e7f7;stroke-width:0.227281px;stroke-linecap:butt;stroke-linejoin:miter;stroke-opacity:1"
       d="m 368.79137,216.81471 v 20.49337 h 507.89415 v -28.57383 c 0,0 -0.28034,-2.18912 -5.96847,-1.36756 -5.68815,0.82156 -8.03762,10.08703 -12.86017,9.49367 -4.82257,-0.59336 -9.21233,-9.35674 -15.64242,-10.13266 -6.43008,-0.77592 -24.051,5.06632 -36.66386,5.65968 -12.61283,0.59336 -21.63969,-0.73029 -24.3601,-0.91285 -2.72044,-0.18257 -6.61555,6.61819 -15.45694,6.70947 -8.84135,0.0914 -18.48648,-3.51448 -22.7526,-3.60577 -4.26611,-0.0913 -20.09403,1.87134 -22.69079,1.87134 -2.59676,0 -24.73109,-1.32362 -28.44076,-1.32362 -3.70966,0 -9.89242,0.22821 -11.49995,0.8672 -1.60752,0.63901 -6.86287,3.65141 -9.64512,3.28627 -2.78223,-0.36513 -12.55103,-3.7427 -16.19886,-3.83399 -3.64783,-0.0913 -11.25264,4.15349 -16.19888,4.24478 -4.94621,0.0914 -33.26329,-1.59749 -37.46757,-1.91699 -4.20431,-0.3195 -11.87094,-1.04978 -17.18812,-0.639 -5.31717,0.41079 -8.96503,0.45642 -11.74727,2.64726 -2.78222,2.19086 -2.59677,4.06221 -5.93546,3.834 -3.33871,-0.22822 -5.74997,0.73027 -14.46768,-1.14107 -8.71773,-1.87135 -18.73381,-4.51861 -27.45152,-4.70119 -8.71772,-0.18258 -10.26342,-1.09543 -18.23916,0 -7.9758,1.09541 -16.87898,5.84226 -21.51606,5.47711 -4.63708,-0.36514 -19.78486,-2.87548 -23.61819,-3.74269 -3.83332,-0.86722 -21.76336,-4.29041 -27.14238,-5.06633 -5.37902,-0.77593 -17.80637,-2.14521 -24.73109,-0.50209 -6.92471,1.64314 -8.40857,3.10371 -11.0053,3.5145 -2.59678,0.41077 -17.9919,0.59335 -21.51609,0.0457 -3.52417,-0.54769 -7.48934,-0.68463 -7.48934,-0.68463 z"
       id="path4" /><path
       style="fill:#c6eaf6;fill-opacity:1;stroke:#c6eaf6;stroke-width:0.195384px;stroke-linecap:butt;stroke-linejoin:miter;stroke-opacity:1"
       d="m 626.65597,182.83287 c 0,0 -1.73533,-1.55267 0,-2.19202 1.73535,-0.63934 9.13341,-1.82668 9.95541,-2.28335 0.82201,-0.45667 0.63933,-1.82668 2.74003,-2.19201 2.10067,-0.36533 7.21538,1.37001 13.60875,1.37001 6.39339,0 8.67674,0.18267 9.95541,-0.36533 1.27868,-0.54801 5.93672,-3.10536 7.30673,-3.10536 1.37001,0 3.56201,0.91334 7.4894,0.91334 3.92736,0 15.16144,-0.36533 15.16144,-0.36533 0,0 -0.0914,-0.82202 2.10068,-1.37001 2.19201,-0.54801 11.50808,-3.01404 11.87341,-3.01404 0.36535,0 -1.644,0.63935 -1.00466,1.37002 0.63933,0.73068 3.56203,-0.63933 6.02804,-0.63933 2.46602,0 7.76338,4.20135 10.13807,4.01869 2.37469,-0.18267 7.58072,-3.83604 13.97412,-4.29271 0,0 4.74936,1.37002 6.30205,1.27868 1.55267,-0.0914 2.55734,0.36535 3.7447,-0.91334 1.18733,-1.27868 3.28801,-4.29269 4.65802,-4.38403 1.37001,-0.0914 1.096,0.36535 2.28335,0.822 1.18735,0.45667 5.48005,-0.27399 7.30673,0.36535 1.82666,0.63933 3.37935,4.65803 5.48003,5.84536 2.10069,1.18735 3.28803,1.09602 6.11939,1.09602 2.83134,0 18.08412,0.54801 21.55482,0.54801 3.47069,0 9.13339,-0.45668 11.87342,-0.45668 2.74002,0 2.46602,0 3.65336,0.0914 1.18734,0.0914 2.64868,-0.82202 2.46603,0.54799 -0.18268,1.37001 0.27399,4.74938 -0.36534,4.47537 -0.63934,-0.274 -1.82669,-2.46602 -3.19671,-2.46602 -1.36999,0 -4.65802,1.18734 -7.48938,1.46135 -2.83134,0.274 -8.67672,0.73067 -9.22473,0.63933 -0.54801,-0.0914 0.18266,-1.00468 -1.55268,-1.096 -1.73535,-0.0914 -14.79611,0.82201 -17.71879,0.82201 -2.9227,0 -4.47537,-1.37002 -6.39339,-1.82669 -1.91802,-0.45667 -3.83602,0.54801 -5.1147,0.82201 -1.27868,0.27399 -1.18735,-0.36534 -2.74003,-0.82201 -1.55267,-0.45667 -9.04206,0 -10.96008,-0.27401 -1.91801,-0.27399 -3.74468,-1.096 -6.11938,-0.63933 -2.37468,0.45667 -1.82667,1.64401 -3.47068,2.00934 -1.64402,0.36535 -1.91802,0.63935 -2.55736,0.91335 -0.63934,0.27401 0.45667,1.18735 0.45667,2.10069 0,0.91334 0.18267,1.46133 -1.55267,1.27867 -1.73534,-0.18267 -10.13808,-2.19201 -12.87811,-2.19201 -2.74002,0 -3.56202,-0.45667 -6.66738,0.0913 -3.10535,0.54799 -0.822,1.37001 -3.65336,1.37001 -2.83134,0 -9.13339,-3.10536 -10.22941,-3.4707 -1.096,-0.36534 -3.7447,0.0914 -6.21071,0.0914 -2.46601,0 -12.3301,0.18267 -13.88277,2.10068 -1.55268,1.91801 1.09602,4.5667 -0.36533,4.84071 -1.46135,0.274 -11.23408,-1.37001 -13.97411,-2.00935 -2.74002,-0.63935 -0.91334,-1.55267 -9.77273,-0.54801 -8.85941,1.00468 -9.59008,0.18267 -8.5854,1.00468 1.00468,0.822 2.00934,0.45667 2.10068,1.18733 0.0913,0.73068 -5.57137,1.73535 -6.66738,1.09602 -1.09602,-0.63933 -0.73069,-1.82668 -2.55735,-1.91802 -1.82668,-0.0914 -3.10536,0.274 -7.03273,0.73068 -3.92736,0.45667 -6.39339,-2.46603 -6.39339,-2.46603 z"
       id="path5" /><g
       id="g16"
       transform="translate(-35.454694,1.5107827)"><path
         style="fill:#7bd0fb;fill-opacity:1;stroke:#7fd0f1;stroke-width:0.195384px;stroke-linecap:butt;stroke-linejoin:miter;stroke-opacity:1"
         d="m 450.01307,100.06441 c 0,0 -0.66805,5.41534 12.89434,5.28617 13.56242,-0.12924 9.38748,-5.18936 25.00561,-6.559374 15.61812,-1.370011 25.98362,6.048834 45.94099,4.932034 19.95739,-1.1168 18.44948,4.56671 29.50089,2.00936 11.05143,-2.55736 14.23256,-6.61955 14.23256,-6.61955 0,0 -20.71726,-2.513859 -23.7313,-2.696533 -3.01401,-0.182659 -19.27147,-2.466011 -26.57818,-5.206033 -7.30674,-2.740022 -11.87343,-4.840699 -17.35347,-5.480044 -5.48005,-0.639329 -10.13809,-1.552674 -14.24811,-0.822003 -4.11002,0.730666 -17.99281,4.475366 -20.36747,5.480044 -2.37469,1.004677 -1.37003,1.461348 -7.21539,3.379351 -5.84538,1.918019 -18.08047,6.296578 -18.08047,6.296578 z"
         id="path11" /><path
         style="fill:#ffffff;fill-opacity:1;stroke-width:0.738463"
         d="m 553.81142,102.60623 c -0.26867,-0.0466 -1.14788,-0.17908 -1.9539,-0.29463 -0.80597,-0.11561 -3.09196,-0.60358 -5.07997,-1.08451 -4.46364,-1.07983 -7.39357,-1.634951 -8.62946,-1.634951 -0.8036,0 -1.05541,0.101236 -1.70024,0.683851 -0.41634,0.37612 -0.94686,0.68385 -1.17902,0.68385 -0.48983,0 -3.87487,-0.9829 -5.00938,-1.454531 -0.42541,-0.176848 -1.21314,-0.747843 -1.75044,-1.26885 -0.53731,-0.521021 -1.24069,-1.077414 -1.56303,-1.236442 -0.66661,-0.328807 -2.96028,-0.926998 -3.52941,-0.920454 -0.33755,0.003 -0.32566,0.04553 0.11022,0.386419 l 0.48842,0.382076 -0.68382,0.0015 c -1.00601,0.003 -6.3887,-0.924543 -7.52238,-1.296136 -1.64463,-0.539097 -2.83305,-1.423864 -2.83305,-2.109139 0,-0.227212 0.17583,-0.758012 0.39074,-1.179564 0.21496,-0.421567 0.39079,-0.956261 0.39079,-1.188236 0,-0.46579 -0.49787,-0.639584 -3.02386,-1.055595 -0.74969,-0.1234 -2.28163,-0.482413 -3.40432,-0.797638 -4.01651,-1.127808 -5.05641,-0.835676 -8.63558,2.426056 -0.66624,0.607131 -1.30816,1.110601 -1.4265,1.118822 -0.11831,0.0075 -0.34868,0.04148 -0.51188,0.07383 -0.77293,0.153217 -4.18665,-0.518206 -5.96403,-1.173035 -3.6218,-1.334369 -4.05581,-1.455687 -5.20739,-1.455687 -1.86536,0 -2.22845,0.247923 -5.82024,3.974263 -0.98923,1.026287 -1.84355,1.704703 -2.64107,2.097323 -1.20134,0.591422 -3.86853,1.214952 -6.15446,1.438764 -4.85931,0.475765 -5.47727,0.599884 -10.25771,2.060153 -4.15933,1.270561 -6.33895,1.654861 -8.48557,1.496181 -3.35835,-0.24827 -3.95259,-0.57501 -2.21175,-1.21617 1.10611,-0.407364 1.80732,-0.987749 1.80732,-1.495861 0,-0.507154 -0.35373,-1.125413 -0.64389,-1.125413 -0.13163,0 -0.48024,-0.223363 -0.77466,-0.496371 -0.4538,-0.420788 -0.53531,-0.654155 -0.53531,-1.532497 0,-2.183988 1.89608,-6.145222 3.646,-7.617083 1.90671,-1.603752 3.92442,-1.452857 6.35287,0.47509 1.39981,1.11132 3.57035,2.137009 4.52227,2.137009 1.54927,0 2.4719,-0.810547 3.24703,-2.85255 0.46406,-1.222529 1.53923,-2.434202 2.66797,-3.00671 1.27432,-0.646345 3.75917,-0.776056 5.57116,-0.29082 2.10413,0.563469 3.11002,0.690658 5.54737,0.701425 6.2306,0.02756 11.19433,-1.835533 17.34988,-6.512102 2.12897,-1.617434 3.76754,-2.570974 4.15951,-2.420556 0.16298,0.06255 0.25071,0.03988 0.19488,-0.05044 -0.21423,-0.346657 2.30342,-0.906288 3.98888,-0.886659 3.11226,0.03626 5.40407,0.953807 9.93891,3.979216 4.46352,2.977771 4.92676,3.141148 6.37577,2.248672 1.27179,-0.783333 1.63311,-0.673967 3.64299,1.102665 1.95183,1.725404 2.32512,2.017215 3.79105,2.9636 2.58202,1.666995 8.35577,4.225676 10.59525,4.69542 0.96413,0.202217 1.08331,0.188559 1.33284,-0.152663 0.15073,-0.206111 0.27405,-0.520167 0.27405,-0.6979 0,-0.478939 0.63995,-0.971446 1.42855,-1.099414 0.88859,-0.144216 1.8167,0.302271 4.1399,1.991445 4.44237,3.229968 12.2867,5.937568 13.42725,4.634663 0.16467,-0.188066 0.41878,-0.679974 0.56471,-1.093125 0.51389,-1.454878 2.4268,-3.05881 3.64794,-3.05881 0.60199,0 1.46546,0.819772 2.77653,2.63591 1.98499,2.749607 3.88063,4.169906 6.18242,4.632178 1.05039,0.210948 2.2196,0.826736 2.35495,1.240321 0.081,0.247279 -1.13264,0.689408 -3.7491,1.36586 -1.593,0.41182 -2.69059,0.53808 -5.94248,0.68359 -4.61229,0.20638 -6.64159,0.44524 -8.41833,0.99094 -1.22608,0.37655 -4.56533,0.64352 -5.66615,0.453 z"
         id="path6"
         sodipodi:nodetypes="ssssscsccssssssssssssssssssssssssssssssssssssssssssssssssssccsscs" /></g><g
       id="g15"
       transform="translate(68.118003,-3.6716243)"><path
         style="fill:#99d6f6;fill-opacity:1;stroke:#99d6f6;stroke-width:0.195384px;stroke-linecap:butt;stroke-linejoin:miter;stroke-opacity:1"
         d="m 697.22953,135.92871 c 0,0 6.95959,2.61748 28.65944,2.22998 21.69986,-0.38749 34.87478,-5.81247 40.94558,-6.97495 6.07077,-1.16249 27.59649,-5.13699 27.59649,-5.13699 0,0 -8.99662,-0.58855 -21.65488,-3.21533 -12.65825,-2.62677 -26.60816,-3.44521 -33.84143,-1.72261 -7.23328,1.72261 -21.54606,2.83235 -27.1125,6.45365 -5.56646,3.62128 -14.5927,8.36621 -14.5927,8.36621 z"
         id="path9" /></g><path
       style="fill:#d4eaf5;fill-opacity:1;stroke:#99d6f6;stroke-width:0.13808;stroke-linecap:round;stroke-linejoin:round;stroke-miterlimit:0.1;stroke-opacity:1;paint-order:fill markers stroke"
       d="m 513.25802,148.11588 c -1.09567,-0.18165 -2.54358,-0.65563 -3.21755,-1.05328 -1.44326,-0.85154 -2.42612,-0.88215 -5.38501,-0.1677 -3.88406,0.93784 -19.37138,0.62279 -16.61255,-0.33795 0.29577,-0.10303 2.39119,-0.59691 4.65653,-1.09761 4.85274,-1.07257 6.93462,-2.11936 10.40654,-5.23256 3.34422,-2.9987 4.04865,-3.02946 6.69958,-0.29247 1.06404,1.0986 2.37214,2.10726 2.90688,2.24148 1.42818,0.35844 6.93048,-0.13554 12.84537,-1.15338 7.71558,-1.32763 7.88644,-1.30098 10.69923,1.6674 1.46464,1.54568 1.86446,1.76148 3.66469,1.97798 2.1847,0.26277 8.34173,-0.14361 16.87386,-1.11361 4.45111,-0.50606 5.47662,-0.52873 5.95505,-0.13163 1.6433,1.36384 -1.81869,2.08529 -12.2455,2.55192 -4.198,0.18787 -8.84968,0.63011 -11.32542,1.0767 -6.53488,1.1788 -21.52106,1.79439 -25.9217,1.06477 z"
       id="path10" /><g
       id="g14"
       transform="matrix(0.73846305,0,0,0.73846305,138.70726,263.81002)"><path
         style="fill:#97d7f3;fill-opacity:1;stroke:#97d7f3;stroke-width:0.264583px;stroke-linecap:butt;stroke-linejoin:miter;stroke-opacity:1"
         d="m 372.23702,-108.81008 c 0.43074,0.33994 0.29081,7.14412 6.35119,6.64939 6.06039,-0.49472 21.27316,-4.08148 29.6835,-5.56565 8.41031,-1.48418 12.0047,-4.17059 21.39685,-4.69989 9.39213,-0.52929 2.40734,-1.33109 14.49941,0.3239 12.09204,1.655 15.7094,0.11037 15.7094,0.11037 0,0 -5.22521,-6.96274 -6.33834,-6.96274 -1.11312,0 -27.82826,0 -27.82826,0 0,0 -30.4868,-0.87688 -33.73374,1.58898 -3.24697,2.46587 -19.57202,8.70433 -19.57202,8.70433"
         id="path14" /><path
         style="fill:#b9e2f6;fill-opacity:1;stroke:#b9e2f6;stroke-width:0.264583px;stroke-linecap:butt;stroke-linejoin:miter;stroke-opacity:1"
         d="m 379.73322,-118.93993 c 0,0 -6.29682,-4.02297 -8.22087,4.89753 -1.92402,8.92049 6.47174,5.94699 11.36928,4.89752 4.89752,-1.04947 8.22084,0.52474 15.56713,-0.17491 7.34629,-0.69964 11.71909,-5.24735 12.76856,-5.07243 1.04947,0.17491 -1.57422,2.27385 4.37279,2.27385 5.94699,0 7.34629,-6.64665 15.04238,-5.59718 7.69612,1.04947 3.84808,4.3728 11.19437,5.42227 7.34628,1.04946 7.87101,-2.62368 14.86749,-0.87456 6.99646,1.74911 7.87101,6.82155 17.14132,6.82155 9.27034,0 9.96998,-0.34982 9.96998,-0.34982 0,0 1.57422,-5.42226 2.97349,-6.64664 1.3993,-1.22439 8.39576,-5.24735 4.02296,-5.24735 -4.37277,0 -7.69609,4.89752 -13.46819,5.24735 -5.77207,0.34982 -8.22084,3.1484 -14.16783,-2.27386 -5.94701,-5.42226 -5.24735,-10.31978 -9.09542,-13.29328 -3.84805,-2.9735 -10.4947,-4.19788 -18.36571,0.34982 -7.87103,4.5477 -7.34628,6.12191 -11.894,6.12191 -4.54771,0 -8.22084,-1.39929 -14.16785,-2.27385 -5.94699,-0.87457 -12.41872,-1.04947 -14.69258,0.52473 -2.27385,1.57421 -2.97349,6.82156 -2.97349,6.82156 z"
         id="path13" /></g><g
       id="g19"
       transform="translate(-4.012893,16.052735)"><path
         style="fill:#7dd0f2;fill-opacity:1;stroke:none;stroke-width:0.132217;stroke-linecap:round;stroke-linejoin:round;stroke-miterlimit:0.1;stroke-opacity:1;paint-order:fill markers stroke"
         d="m 704.74089,81.855271 c -2.11643,-0.45997 -5.34355,-1.264817 -7.17137,-1.788549 -8.73242,-2.502117 -15.77824,-4.023968 -18.6413,-4.026384 -0.72877,-5.29e-4 -2.75167,0.549855 -4.49535,1.223264 -1.74368,0.67341 -3.56471,1.224383 -4.04673,1.224383 -2.70812,0 -8.29886,-2.281809 -9.89791,-4.039732 l -0.87455,-0.961451 0.87455,0.233197 c 3.07078,0.818805 4.76926,0.951873 10.89539,0.853613 l 6.77068,-0.108594 5.1978,-2.381719 c 4.89869,-2.244662 6.19278,-2.675101 4.95555,-1.648267 -0.29327,0.243379 -0.53319,0.72237 -0.53319,1.064429 0,0.641826 0.61785,0.842896 5.42226,1.764572 1.15441,0.221463 3.00943,0.770195 4.12226,1.219404 2.30026,0.928532 2.7572,0.847043 6.85782,-1.222941 3.29868,-1.665171 5.05502,-1.75722 7.92278,-0.415229 1.72426,0.806886 2.84197,1.095015 4.24775,1.095015 2.20555,0 2.94921,-0.317227 4.72768,-2.016757 l 1.29175,-1.234387 2.46364,2.280958 c 4.52936,4.1935 9.78791,4.763419 17.16597,4.851528 l 6.40444,0.07648 -5.35427,1.668871 c -7.03564,2.192937 -15.63976,2.71598 -26.76149,2.957484 -7.16499,0.155583 -7.96168,0.109402 -11.54416,-0.66919 z"
         id="path19"
         sodipodi:nodetypes="sssssscsscssssssssscsscsss" /><path
         style="fill:#ffffff;fill-opacity:1;stroke:none;stroke-width:0.132217;stroke-linecap:round;stroke-linejoin:round;stroke-miterlimit:0.1;stroke-opacity:1;paint-order:fill markers stroke"
         d="m 733.75441,78.065683 c -4.36822,-1.329209 -6.51634,-2.577466 -9.5909,-5.708913 -1.85552,-1.889845 -1.86378,-1.893745 -2.39845,-1.130401 -0.29509,0.421291 -1.17311,1.227124 -1.95114,1.79074 -1.94662,1.410112 -4.72414,1.441259 -7.35576,0.08249 -2.83718,-1.464914 -4.2425,-1.197808 -8.95825,0.500741 l -4.48561,1.615656 -1.69532,-0.732559 c -0.93242,-0.402911 -3.75753,-0.12905 -5.59469,-0.488013 -4.87622,-0.952759 -5.17536,-1.141786 -3.94983,-2.495963 1.21769,-1.345536 -0.0573,-1.027005 -5.21693,1.303401 l -5.33394,2.40914 -4.19788,0.237707 c -4.80325,0.271986 -10.33651,-1.020938 -12.37525,-1.737324 l -1.39018,-0.488489 3.3142,-0.59739 c 3.61302,-0.651248 6.36733,-1.647153 8.9104,-3.221834 0.90088,-0.557818 2.21417,-1.365821 2.91841,-1.795563 1.55223,-0.947187 3.47755,-1.011653 6.35137,-0.212661 l 2.08685,0.580197 2.08616,-1.463366 c 2.74648,-1.926545 4.30972,-2.43832 8.30607,-2.719234 l 3.32226,-0.233534 2.78517,-2.557055 c 2.97367,-2.730178 4.03624,-3.181403 6.66218,-2.829193 0.81655,0.109525 1.95363,0.621488 2.68896,1.210691 2.65832,2.130052 3.44003,2.255139 5.99673,0.959565 2.55611,-1.295284 3.84413,-1.175994 5.35461,0.495914 0.68098,0.75376 1.49407,1.761072 1.80686,2.238475 1.13017,1.724827 2.24438,1.844474 6.04348,0.648957 6.70772,-2.110817 7.68909,-2.28673 12.89169,-2.310932 l 4.93234,-0.02294 2.38302,1.224383 c 4.27585,2.196899 5.59991,4.863362 4.37388,8.808405 -0.77634,2.498095 -2.71859,5.583158 -4.07411,6.471325 -1.41888,0.929687 -11.75329,1.04793 -14.6464,0.167579 z"
         id="path18"
         sodipodi:nodetypes="sssssscsssscsscsssscsscsssssssscsssss" /></g><g
       id="g21"
       transform="translate(-14.69258,58.863381)"><path
         style="fill:#7dd0f2;fill-opacity:1;stroke:none;stroke-width:0.0934913;stroke-linecap:round;stroke-linejoin:round;stroke-miterlimit:0.1;stroke-opacity:1;paint-order:fill markers stroke"
         d="m 618.86641,72.258723 c -0.0607,-0.05613 -0.72253,-0.174506 -1.47082,-0.263057 -1.11324,-0.131744 -3.84794,-0.647705 -6.80247,-1.283438 -0.27209,-0.05855 -0.88431,-0.167431 -1.36048,-0.241959 -0.47618,-0.07453 -1.25537,-0.233468 -1.73154,-0.353198 -0.47617,-0.119732 -1.53363,-0.292092 -2.34995,-0.383024 -0.8163,-0.09093 -1.68291,-0.202626 -1.9258,-0.248211 -0.24289,-0.04558 -1.37112,-0.103364 -2.50714,-0.128402 -1.78168,-0.03927 -3.1618,-0.0621 -5.07606,-0.419482 -0.2721,-0.0508 -0.76661,-0.195932 -1.0989,-0.322512 l -0.60417,-0.230147 0.60581,-0.152054 c 0.33319,-0.08363 2.77978,-0.609876 5.90802,-0.965759 5.11683,-0.582115 5.9608,-0.619228 8.40867,-0.369758 3.4139,0.347916 5.28005,0.775719 8.27157,1.896173 l 2.36344,0.885212 1.19031,-0.42803 c 1.17689,-0.423201 1.51868,-0.4216 4.64992,0.02178 1.54667,0.219006 2.00064,-0.08459 3.20183,-2.141286 1.3849,-2.371288 1.97609,-2.698798 4.87367,-2.69997 l 2.28809,-7.94e-4 v -0.750032 c 0,-1.123122 0.63633,-2.4281 1.34044,-2.748902 0.58766,-0.267766 0.73723,-0.166928 2.56754,1.730983 1.06892,1.108422 2.13281,2.015313 2.36421,2.015313 0.23138,0 1.11323,-0.35002 1.95966,-0.777825 1.55493,-0.785892 5.63068,-2.262759 5.79395,-2.099471 0.19982,0.199813 -6.66914,4.563546 -9.07854,5.767448 -2.8521,1.425099 -7.43299,3.01198 -10.5129,3.641818 -1.08839,0.222573 -2.53547,0.52411 -3.21572,0.670086 -1.22729,0.263366 -7.84108,0.574344 -8.05264,0.378632 z"
         id="path21"
         sodipodi:nodetypes="sssssssssscsssscsssccsssssssssss" /><path
         style="fill:#ffffff;fill-opacity:1;stroke:#000000;stroke-width:0.0934913;stroke-linecap:round;stroke-linejoin:round;stroke-miterlimit:0.1;stroke-opacity:0;paint-order:fill markers stroke"
         d="m 617.27192,69.380651 c -2.57625,-0.988105 -4.69479,-1.465852 -8.16298,-1.840812 -2.62173,-0.283448 -3.70178,-0.213342 -11.58771,0.752139 -2.29177,0.280583 -4.22307,0.453943 -4.29178,0.385241 -0.35378,-0.353782 0.3498,-0.5989 2.02829,-0.70662 2.68454,-0.172281 3.13309,-0.666565 3.8376,-4.228679 0.16348,-0.826691 0.43929,-1.49751 0.64868,-1.577867 0.20037,-0.07688 0.83105,0.193144 1.40152,0.600054 1.62756,1.160881 2.54021,1.550128 3.63458,1.550128 1.1162,0 1.69336,-0.249494 3.69573,-1.597562 1.01764,-0.685128 1.50013,-0.868577 1.9789,-0.752393 0.34819,0.08451 1.5236,1.022239 2.61199,2.083853 1.08842,1.061611 2.17993,1.999927 2.42562,2.085144 1.3888,0.481706 3.66924,-1.949887 5.11881,-5.4581 0.43784,-1.05963 0.96817,-2.121395 1.17851,-2.359483 0.46559,-0.526955 1.47058,-0.545938 3.27414,-0.06184 0.7483,0.200845 1.99305,0.366493 2.76617,0.36811 l 1.40565,0.0029 1.39398,-2.906508 c 2.48431,-5.179851 4.27935,-7.688739 5.27497,-7.372734 0.71538,0.22705 1.13827,0.990198 2.29167,4.135644 1.17321,3.199537 1.75392,4.437412 2.62882,5.603946 0.69614,0.928167 2.44485,2.271192 2.95724,2.271192 0.18672,0 0.82251,-0.445254 1.41291,-0.989452 1.46854,-1.353653 2.75177,-1.366925 5.223,-0.05402 0.95221,0.505883 1.76575,1.106072 1.80787,1.333751 0.10407,0.56243 -1.5481,1.485707 -4.06185,2.2699 -1.10379,0.344337 -2.84917,1.04284 -3.87861,1.552229 l -1.87174,0.92616 -0.94496,-0.65701 c -0.51972,-0.361358 -1.43468,-1.272408 -2.03322,-2.02456 -0.72112,-0.906187 -1.26986,-1.367549 -1.62658,-1.367549 -0.95914,0 -2.10873,1.681757 -2.10873,3.084954 0,0.562697 -0.0697,0.581533 -2.45792,0.664144 -2.33315,0.0807 -2.49666,0.122158 -3.22117,0.816771 -0.41976,0.402463 -1.08112,1.292969 -1.46963,1.978901 -1.08238,1.910993 -1.51858,2.210763 -2.92523,2.010383 -3.05205,-0.434758 -3.67705,-0.441153 -4.61979,-0.04726 -1.22703,0.512689 -1.1336,0.524521 -3.73475,-0.47313 z"
         id="path20" /></g><path
       style="fill:#ffffff;stroke:#d4eaf5;stroke-width:0.264583px;stroke-linecap:butt;stroke-linejoin:miter;stroke-opacity:1;fill-opacity:1"
       d="m 765.34753,132.25708 c 0,0 -2.25933,-0.54128 -1.64548,-2.0892 0.61386,-1.54792 1.3624,-2.03656 4.34661,-2.58672 2.98418,-0.55016 8.54376,-0.55204 14.47657,-5.73356 5.9328,-5.18152 8.5181,-0.44975 12.40454,-3.34495 3.88644,-2.8952 6.0181,0.33325 8.96493,-3.17478 2.94682,-3.50804 1.97511,-4.10395 4.62629,-4.64272 2.65118,-0.53877 5.05923,-2.3601 6.86435,-3.3268 1.80512,-0.9667 3.00537,-3.51457 4.81915,-1.60988 1.81379,1.9047 2.37932,5.57077 6.18564,5.23199 3.80629,-0.33878 5.17646,-2.29571 9.11383,-0.94799 3.9374,1.34771 5.54133,2.00495 7.24218,2.83543 1.70087,0.83048 9.72817,-3.18479 14.26316,2.15647 4.53498,5.34125 5.52198,6.41286 5.53974,7.3506 0.0177,0.93775 1.01605,1.30306 -1.32763,0.80578 -2.34365,-0.49729 -9.13111,-1.78745 -16.0442,-0.303 -6.91309,1.48444 -8.94548,-3.57948 -13.43901,-4.06475 -4.49352,-0.48526 -7.21907,5.95863 -12.71508,4.35457 -5.496,-1.60406 -4.12202,-3.38401 -7.31208,-1.75143 -3.19005,1.63258 -4.66984,5.02025 -9.76341,5.22722 -5.09357,0.20697 -10.4058,1.52038 -13.52116,2.40553 -3.11537,0.88516 -16.66944,3.24017 -19.37187,3.20113 -2.7024,-0.039 -3.70707,0.007 -3.70707,0.007 z"
       id="path22" /></g></svg>
